<svg id="Capa_3_copia" data-name="Capa 3 copia" xmlns="http://www.w3.org/2000/svg" viewBox="0 0 1849 529.6">
  <defs>
    <style>
      .cls-1, .cls-2 {
        fill: #fff;
      }

      .cls-2 {
        font-size: 250px;
        font-family: SegoeUIBlack, Segoe UI;
      }
    </style>
  </defs>
  <g>
    <path class="cls-1" d="M346.1,453.3a263.9,263.9,0,0,1-184.6,77.2A263.9,263.9,0,0,1-23,453.3l12,71.4,29.7,20.4-26.6-3.2a240.3,240.3,0,0,0,83.5,54.6,234.6,234.6,0,0,0,53.6,13.7s35.5,16.7,13.6,56.9L161.5,689l18.8-21.9c-21.9-40.2,13.6-56.9,13.6-56.9a234.6,234.6,0,0,0,53.6-13.7A240.3,240.3,0,0,0,331,541.9l-26.6,3.2,29.7-20.4Z" transform="translate(23 -453.3)"/>
    <path class="cls-1" d="M276.8,595.1c.9,2.8,16.1,50.3-16.3,89.4-30.3,36.5-75.6,33.5-79.7,33.1l-19.3,18.8-19.2-18.8c-4.1.4-49.4,3.4-79.7-33.1-32.4-39.1-17.2-86.6-16.3-89.4L8.8,574.8s17.7,27.6,16.7,41.7c-1.3,17.7-2,24.7-.5,42.1,2.4,27.1,14.6,27.7,19.2,51.7,0,0,3.3,16.5-20.8,90.2,28-32.6,51.3-40.2,68.5-40.1,30.1.1,68.5,24,69.6,24.5s39.6-24.4,69.6-24.5c17.2-.1,40.6,7.5,68.6,40.1-24.1-73.7-20.9-90.2-20.9-90.2,4.7-24,16.9-24.6,19.3-51.7,1.5-17.4.8-24.4-.5-42.1-1-14.1,16.7-41.7,16.7-41.7Z" transform="translate(23 -453.3)"/>
  </g>
  <text class="cls-2" transform="translate(385.8 285.9)">Owl-logic</text>
</svg>
