<svg id="Capa_3" data-name="Capa 3" xmlns="http://www.w3.org/2000/svg" viewBox="0 0 916 861.7"><defs><style>.cls-1{fill:#fff;}</style></defs><path class="cls-1" d="M1167,226.9c-43.1,42.7-123.9,111.2-244.5,153.9A656.1,656.1,0,0,1,709,418.3a656.1,656.1,0,0,1-213.5-37.5C374.9,338.1,294.1,269.6,251,226.9q14.8,88.5,29.8,177.2l73.7,50.5-66-7.8c40.1,40.1,108.3,97.3,207.2,135.4a584.6,584.6,0,0,0,133.1,34.1s88,41.4,33.6,141L709,811.6l46.6-54.3c-54.4-99.6,33.6-141,33.6-141a584.6,584.6,0,0,0,133.1-34.1c98.9-38.1,167.1-95.3,207.2-135.4l-66,7.8,73.7-50.5Q1152.2,315.5,1167,226.9Z" transform="translate(-251 -226.9)"/><path class="cls-1" d="M994.9,578.8c2.3,6.8,40,124.8-40.3,221.7-75.1,90.8-187.7,83.2-197.7,82.3L709,929.4l-47.9-46.6c-10,.9-122.6,8.5-197.7-82.3-80.3-96.9-42.6-214.9-40.3-221.7l-93.2-50.5s44,68.6,41.4,103.5c-3.2,44-4.9,61.3-1.2,104.5,5.9,67.2,36.2,68.8,47.8,128.4,0,0,8,41-51.8,223.8,69.6-80.9,127.5-99.8,170.2-99.6,74.5.4,169.8,59.6,172.7,60.8,2.9-1.2,98.2-60.4,172.7-60.8,42.7-.2,100.6,18.7,170.2,99.6-59.8-182.8-51.8-223.8-51.8-223.8,11.6-59.6,41.9-61.2,47.8-128.4,3.7-43.2,2-60.5-1.2-104.5-2.6-34.9,41.4-103.5,41.4-103.5Z" transform="translate(-251 -226.9)"/></svg>