<?xml version="1.0" encoding="utf-8"?>
<!-- Generator: Adobe Illustrator 24.1.0, SVG Export Plug-In . SVG Version: 6.00 Build 0)  -->
<svg version="1.1" id="Capa_1" xmlns="http://www.w3.org/2000/svg" xmlns:xlink="http://www.w3.org/1999/xlink" x="0px" y="0px"
	 viewBox="0 0 1360.6 1098.8" style="enable-background:new 0 0 1360.6 1098.8;" xml:space="preserve">
<style type="text/css">
	.st0{display:none;}
	.st1{fill:#FFFFFF;}
</style>
<rect x="-9.9" y="-29.3" class="st0" width="1394.2" height="1160.7"/>
<g id="Capa_1_copia">
	<path class="st1" d="M0,965h1318.7c9.1,47.4-13.2,92.6-57.7,116.7c-20.6,11.2-43.7,17.1-67.2,17.1c-356.5,0-713-0.1-1069.3-0.2
		c-42.6,0-78.7-16.2-105.2-50.5C6.6,1031.7-0.4,1012.9,0,991.8C0.2,983,0,974.2,0,965z M501.6,1015.7v-31.6H43
		c-0.9,20.2,6.1,37.2,20,51.1c18.4,18.5,41.1,26.6,67,26.6h1054.3c6.3,0.1,12.6-0.3,18.9-1c24.3-3.1,44.6-13.5,59.6-33.1
		c9.8-12.8,14.5-27.3,13.4-43.6H824.4v31.6H501.6z"/>
	<path class="st1" d="M330,293.2H167.6c-14.5-0.2-26.5,11.4-26.7,25.9c0,0.2,0,0.4,0,0.6c0,182.8-0.1,365.5-0.2,548.2
		c-0.1,15.5,12.3,28.1,27.8,28.2c0.2,0,0.4,0,0.6,0c325-0.2,650-0.2,974.9,0c16.2,0,28.7-12.3,28.6-28.6
		c-0.4-74.8-0.2-224.3-0.2-224.3l36.7-45.3c0,0,0.3,184.9,0.3,276.5c-0.1,27-22.2,53-49,57.4c-4.1,0.7-8.2,1-12.4,1
		c-327.5,0.1-654.9,0.1-982.4,0.2c-33.6,0.1-61.9-28-61.8-61.9c0.3-185.7,0.3-371.4,0.2-557.1c0-26.1,20.5-50.9,47.8-56.7
		c4.1-0.7,8.2-1.1,12.3-1h152.5C321,268.3,325.3,280.4,330,293.2z"/>
	<path class="st1" d="M706.4,769c24.7,13.7,48.3,26.9,72.1,39.9c2.2,1.2,5.5,1.1,8.1,0.7c31-5,61.7-12,91.8-20.9
		c33.1-9.8,65.2-22.4,96.2-37.6c35.8-17.4,68.7-39.2,97.8-66.5c19.1-17.9,35.5-38.3,48.8-60.8c3.1-5.3,17.1-30.1,17.1-30.1l32,22.4
		c0,0-19,33.3-29.1,47.7c-22.3,31.6-50.2,57.8-81.4,80.5s-63.8,40.6-98.6,55.5c-56.8,24.3-115.9,40.3-177,49.4
		c-8.6,1.3-15.3-1.6-22.3-5c-31-15.4-60.5-33.5-89.6-52.2c-43.6-28.2-85.9-58.3-126.9-90.2c-37.2-29.1-74.4-58.3-110.8-88.4
		S350,543.6,317.5,508.5c49,17.3,104,34.2,156.2,42.4c36.7,5.7,73.7,8.1,110.9,6c84.5-4.6,161.8-30.1,229.7-81.5
		c20.2-15.3,54.3-52.5,54.3-52.5l28,20.1c0,0-23.5,32.3-38.3,45.8c-37.8,34.3-81.9,57.6-129.1,76.4c-25.9,10.3-52.8,18-80.3,23.1
		c-39.8,7.3-80,9.3-120.4,7c-19.8-1.2-39.6-4-59.5-6.1h-1.9c12,13.5,26.5,21.5,44.4,25.1c32.3,6.4,65.3,8.3,98.1,5.7
		c6.3-0.5,12.5-1.4,18.7-2.1l0.6,1.6c-1.4,0.9-2.8,1.8-4.3,2.5l-54.7,19l-27.5,9.6c7.3,5.7,13.9,11.2,20.9,16.4
		c17.7,13.3,35.4,26.6,53.5,39.4c3.8,2.7,9.1,4.7,13.7,4.6c57.8-2.1,115.2-8.2,170.7-25.2c15.5-4.8,30.2-12.4,45.3-18.6l6.2-2.9
		c0.3,0.5,0.6,0.9,1,1.3c-2,2-4.2,3.9-6.4,5.6l-116,80.9C723.5,757.5,715.7,762.7,706.4,769z"/>
	<path class="st1" d="M1225.2,497.1c0.4,23.3-6.2,46.1-18.9,65.6c-6,9.4-12.2,18.7-17.8,28.3c-2.5,4.2-4.5,4-8.2,1.7
		c-34.5-22.2-69-44.3-103.7-66.2L882.8,403.1c-5.4-3.5-5.5-3.7-1.9-9.3c6.9-10.7,13.5-21.7,20.7-32.2c19.3-27.9,46-44.4,79.3-50.3
		c23-4.1,45.3-1.3,67,7.3c5.5,2.2,10.9,5,15.9,8.2c36.2,22.9,72.5,45.7,108.4,69.1c28.1,18.5,44.7,45,51.1,77.9
		c0.9,4.4,1.5,8.8,1.9,13.3C1225.5,490.4,1225.2,493.8,1225.2,497.1z"/>
	<path class="st1" d="M404.2,0c1.1,1.5,2,3.1,2.9,4.7l36,80.1c7,15.6,13.9,31.1,21.1,46.5c0.9,2,2.6,3.7,4.6,4.6
		c41.9,19,83.8,37.7,125.8,56.6l1.3,0.7l2.8,2.3c-1,1-1.7,2.3-2.9,2.8c-17.5,8.1-35.1,16-52.8,23.9l-74.2,33.4c-2,1-3.6,2.6-4.7,4.6
		l-56.4,125.4c-0.7,1.6-2.1,3-3.2,4.5c-1.3-1.5-2.9-2.9-3.7-4.7c-18.8-41.8-37.6-83.6-56.4-125.3c-1-2-2.7-3.6-4.7-4.5
		c-41.8-19-83.8-37.7-125.7-56.6c-1.5-0.9-2.9-1.9-4.1-3.1c1.4-1.1,2.6-2.7,4.2-3.4l125.8-56.6c2-1,3.6-2.6,4.6-4.6
		C363.4,89.4,382.2,47.4,401,5.5C401.7,4,402.7,2.6,404.2,0z"/>
	<path class="st1" d="M1360.5,46.4c-1.5,5.3-2.3,11-4.7,16c-10.7,22.3-21.8,44.3-32.7,66.4c-11.9,24-23.6,48-35.5,72
		c-21,42.3-41.9,84.5-63.2,126.7c-7.1,14.3-14.8,28.3-22.6,42.2c-3.2,5.6-7.7,10.5-11.1,16s-5.3,3.6-8.9,1.2
		c-17-11-34.2-21.8-51.3-32.7c-21.2-13.6-42.5-27.2-63.9-40.6c-3.8-2.4-4.9-4.4-2.6-8.7c10.2-19.2,23.1-36.6,36.8-53.4
		s28.3-35.3,42.4-52.9s28.5-35.1,42.6-52.8c11.4-14.3,22.7-28.7,34.1-42.9s23.1-28.3,34.5-42.5c8.8-11,17.3-22.3,26.2-33.2
		c6.6-8.2,12.8-17.1,23.8-20.1c6.5-1.8,12.4-2.1,18.4,2.2c8.1,5.9,16.5,11.2,25.3,16C1356.7,30,1360,36.8,1360.5,46.4z"/>
	<path class="st1" d="M1070.5,256.2l-38.5,37H478.2c5.1-8.9,0-0.4,21.6-37H1070.5z"/>
	<path class="st1" d="M362,639.2c1,1.5,1.9,3,2.7,4.5c10.4,23,20.8,46.1,31,69.2c1.3,3.3,3.9,6,7.2,7.3c23,10.1,45.9,20.5,68.7,30.8
		c1.3,0.6,2.3,1.9,3.5,2.8c-1.2,1.1-2.3,2.5-3.7,3.2c-23,10.4-46.1,20.6-69,31.2c-2.7,1.3-4.9,3.5-6.3,6.2
		c-10.5,23-20.8,46.1-31.2,69.1c-0.7,1.4-2.1,2.5-3.1,3.7c-1.2-1.2-2.2-2.5-3.1-3.9c-10.4-23-20.7-46.1-31.2-69
		c-1.3-2.6-3.3-4.6-5.9-5.9c-23-10.6-46.1-20.8-69.1-31.3c-1.5-0.6-2.6-2-3.9-3c1.4-1.1,2.6-2.6,4.1-3.3
		c22.9-10.4,45.8-20.6,68.6-31.1c2.7-1.3,5-3.5,6.3-6.2c10.6-23.1,20.9-46.4,31.3-69.5C359.5,642.6,360.5,641.5,362,639.2z"/>
	<path class="st1" d="M282.2,489.7c-2.3,1.3-3.5,2.1-4.7,2.6c-13.2,6-26.5,11.8-39.6,18c-2.5,1.3-4.6,3.4-5.9,5.9
		c-6.1,13-11.8,26.1-17.8,39.2c-0.6,1.3-1.9,2.3-2.9,3.5c-1-1.1-2-2.4-2.8-3.7c-5.9-12.8-11.5-25.8-17.7-38.6
		c-1.5-2.8-3.8-5.1-6.6-6.5c-12.7-6.1-25.7-11.7-38.6-17.5c-1.3-0.8-2.5-1.8-3.6-2.9c1.2-1,2.1-2.3,3.5-2.9
		c13.1-6,26.3-11.7,39.4-17.9c2.5-1.3,4.6-3.4,5.8-6c6.2-13,11.9-26.3,17.9-39.4c0.6-1.3,2-2.2,3-3.3c1,1,1.9,2,2.6,3.2
		c5.9,13.2,11.7,26.4,17.9,39.4c1.4,2.7,3.5,4.8,6.2,6.2c13.1,6.2,26.3,12,39.5,18C279,487.6,280,488.4,282.2,489.7z"/>
</g>
</svg>
