<?xml version="1.0" standalone="no"?>
<!DOCTYPE svg PUBLIC "-//W3C//DTD SVG 1.1//EN" "http://www.w3.org/Graphics/SVG/1.1/DTD/svg11.dtd">
<svg xmlns="http://www.w3.org/2000/svg" viewBox="0 0 1360.6 1098.8" width="1360.5999755859375" height="1098.800048828125"><defs><style>.cls-1{fill:#fff;}</style></defs><g id="Capa_1" data-name="Capa 1"><path class="cls-1" d="M19.6,983.6H1338.3c9.1,47.4-13.2,92.6-57.7,116.7a139.9,139.9,0,0,1-67.2,17.1q-534.8,0-1069.3-.2c-42.6,0-78.7-16.2-105.2-50.5-12.7-16.4-19.7-35.2-19.3-56.3C19.8,1001.6,19.6,992.8,19.6,983.6Zm501.6,50.7v-31.6H62.6c-.9,20.2,6.1,37.2,20,51.1,18.4,18.5,41.1,26.6,67,26.6H1203.9a148.6,148.6,0,0,0,18.9-1c24.3-3.1,44.6-13.5,59.6-33.1,9.8-12.8,14.5-27.3,13.4-43.6H844v31.6Z" transform="translate(-19.6 -18.6)"/><path class="cls-1" d="M349.6,311.8H187.2a26.3,26.3,0,0,0-26.7,26.5q0,274.2-.2,548.2a28,28,0,0,0,28.4,28.2q487.5-.3,974.9,0c16.2,0,28.7-12.3,28.6-28.6-.4-74.8-.2-224.3-.2-224.3l36.7-45.3s.3,184.9.3,276.5c-.1,27-22.2,53-49,57.4a74.1,74.1,0,0,1-12.4,1q-491.2.1-982.4.2c-33.6.1-61.9-28-61.8-61.9q.4-278.6.2-557.1c0-26.1,20.5-50.9,47.8-56.7a63.2,63.2,0,0,1,12.3-1H336.2C340.6,286.9,344.9,299,349.6,311.8Z" transform="translate(-19.6 -18.6)"/><path class="cls-1" d="M726,787.6c24.7,13.7,48.3,26.9,72.1,39.9,2.2,1.2,5.5,1.1,8.1.7A743.1,743.1,0,0,0,898,807.3a618.7,618.7,0,0,0,96.2-37.6c35.8-17.4,68.7-39.2,97.8-66.5a275.6,275.6,0,0,0,48.8-60.8c3.1-5.3,17.1-30.1,17.1-30.1l32,22.4s-19,33.3-29.1,47.7c-22.3,31.6-50.2,57.8-81.4,80.5s-63.8,40.6-98.6,55.5c-56.8,24.3-115.9,40.3-177,49.4-8.6,1.3-15.3-1.6-22.3-5-31-15.4-60.5-33.5-89.6-52.2Q626.5,768.3,565,720.4c-37.2-29.1-74.4-58.3-110.8-88.4s-84.6-69.8-117.1-104.9c49,17.3,104,34.2,156.2,42.4,36.7,5.7,73.7,8.1,110.9,6,84.5-4.6,161.8-30.1,229.7-81.5,20.2-15.3,54.3-52.5,54.3-52.5l28,20.1s-23.5,32.3-38.3,45.8C840.1,541.7,796,565,748.8,583.8a427.8,427.8,0,0,1-80.3,23.1c-39.8,7.3-80,9.3-120.4,7-19.8-1.2-39.6-4-59.5-6.1h-1.9c12,13.5,26.5,21.5,44.4,25.1a359,359,0,0,0,98.1,5.7c6.3-.5,12.5-1.4,18.7-2.1l.6,1.6a37,37,0,0,1-4.3,2.5l-54.7,19L562,669.2c7.3,5.7,13.9,11.2,20.9,16.4,17.7,13.3,35.4,26.6,53.5,39.4,3.8,2.7,9.1,4.7,13.7,4.6,57.8-2.1,115.2-8.2,170.7-25.2,15.5-4.8,30.2-12.4,45.3-18.6l6.2-2.9a14.7,14.7,0,0,0,1,1.3,67.5,67.5,0,0,1-6.4,5.6l-116,80.9C743.1,776.1,735.3,781.3,726,787.6Z" transform="translate(-19.6 -18.6)"/><path class="cls-1" d="M1244.8,515.7a116.7,116.7,0,0,1-18.9,65.6c-6,9.4-12.2,18.7-17.8,28.3-2.5,4.2-4.5,4-8.2,1.7q-51.7-33.3-103.7-66.2L902.4,421.7c-5.4-3.5-5.5-3.7-1.9-9.3,6.9-10.7,13.5-21.7,20.7-32.2,19.3-27.9,46-44.4,79.3-50.3,23-4.1,45.3-1.3,67,7.3a95.6,95.6,0,0,1,15.9,8.2c36.2,22.9,72.5,45.7,108.4,69.1,28.1,18.5,44.7,45,51.1,77.9a118.3,118.3,0,0,1,1.9,13.3C1245.1,509,1244.8,512.4,1244.8,515.7Z" transform="translate(-19.6 -18.6)"/><path class="cls-1" d="M423.8,18.6a47.6,47.6,0,0,1,2.9,4.7l36,80.1c7,15.6,13.9,31.1,21.1,46.5a9.4,9.4,0,0,0,4.6,4.6c41.9,19,83.8,37.7,125.8,56.6l1.3.7,2.8,2.3c-1,1-1.7,2.3-2.9,2.8-17.5,8.1-35.1,16-52.8,23.9l-74.2,33.4a11,11,0,0,0-4.7,4.6L427.3,404.2c-.7,1.6-2.1,3-3.2,4.5-1.3-1.5-2.9-2.9-3.7-4.7Q392.2,341.3,364,278.7a10.2,10.2,0,0,0-4.7-4.5c-41.8-19-83.8-37.7-125.7-56.6a23.3,23.3,0,0,1-4.1-3.1c1.4-1.1,2.6-2.7,4.2-3.4l125.8-56.6a10.2,10.2,0,0,0,4.6-4.6q28.3-62.9,56.5-125.8C421.3,22.6,422.3,21.2,423.8,18.6Z" transform="translate(-19.6 -18.6)"/><path class="cls-1" d="M1380.1,65c-1.5,5.3-2.3,11-4.7,16-10.7,22.3-21.8,44.3-32.7,66.4-11.9,24-23.6,48-35.5,72-21,42.3-41.9,84.5-63.2,126.7-7.1,14.3-14.8,28.3-22.6,42.2-3.2,5.6-7.7,10.5-11.1,16s-5.3,3.6-8.9,1.2c-17-11-34.2-21.8-51.3-32.7-21.2-13.6-42.5-27.2-63.9-40.6-3.8-2.4-4.9-4.4-2.6-8.7,10.2-19.2,23.1-36.6,36.8-53.4s28.3-35.3,42.4-52.9,28.5-35.1,42.6-52.8c11.4-14.3,22.7-28.7,34.1-42.9S1262.6,93.2,1274,79c8.8-11,17.3-22.3,26.2-33.2,6.6-8.2,12.8-17.1,23.8-20.1,6.5-1.8,12.4-2.1,18.4,2.2a229.3,229.3,0,0,0,25.3,16C1376.3,48.6,1379.6,55.4,1380.1,65Z" transform="translate(-19.6 -18.6)"/><path class="cls-1" d="M1090.1,274.8l-38.5,37H497.8c5.1-8.9,0-.4,21.6-37h570.7Z" transform="translate(-19.6 -18.6)"/><path class="cls-1" d="M381.6,657.8a51.8,51.8,0,0,1,2.7,4.5c10.4,23,20.8,46.1,31,69.2a12.9,12.9,0,0,0,7.2,7.3c23,10.1,45.9,20.5,68.7,30.8,1.3.6,2.3,1.9,3.5,2.8-1.2,1.1-2.3,2.5-3.7,3.2-23,10.4-46.1,20.6-69,31.2a14,14,0,0,0-6.3,6.2c-10.5,23-20.8,46.1-31.2,69.1-.7,1.4-2.1,2.5-3.1,3.7a19,19,0,0,1-3.1-3.9c-10.4-23-20.7-46.1-31.2-69a13,13,0,0,0-5.9-5.9c-23-10.6-46.1-20.8-69.1-31.3-1.5-.6-2.6-2-3.9-3,1.4-1.1,2.6-2.6,4.1-3.3,22.9-10.4,45.8-20.6,68.6-31.1a13.5,13.5,0,0,0,6.3-6.2c10.6-23.1,20.9-46.4,31.3-69.5C379.1,661.2,380.1,660.1,381.6,657.8Z" transform="translate(-19.6 -18.6)"/><path class="cls-1" d="M301.8,508.3c-2.3,1.3-3.5,2.1-4.7,2.6-13.2,6-26.5,11.8-39.6,18a13.5,13.5,0,0,0-5.9,5.9c-6.1,13-11.8,26.1-17.8,39.2-.6,1.3-1.9,2.3-2.9,3.5a25.7,25.7,0,0,1-2.8-3.7c-5.9-12.8-11.5-25.8-17.7-38.6a15.3,15.3,0,0,0-6.6-6.5c-12.7-6.1-25.7-11.7-38.6-17.5a24.1,24.1,0,0,1-3.6-2.9c1.2-1,2.1-2.3,3.5-2.9,13.1-6,26.3-11.7,39.4-17.9a13,13,0,0,0,5.8-6c6.2-13,11.9-26.3,17.9-39.4.6-1.3,2-2.2,3-3.3a19.2,19.2,0,0,1,2.6,3.2c5.9,13.2,11.7,26.4,17.9,39.4a14.3,14.3,0,0,0,6.2,6.2c13.1,6.2,26.3,12,39.5,18C298.6,506.2,299.6,507,301.8,508.3Z" transform="translate(-19.6 -18.6)"/></g><g id="Capa_1_copia" data-name="Capa 1 copia"><path d="M19.6,983.6H1338.3c9.1,47.4-13.2,92.6-57.7,116.7a139.9,139.9,0,0,1-67.2,17.1q-534.8,0-1069.3-.2c-42.6,0-78.7-16.2-105.2-50.5-12.7-16.4-19.7-35.2-19.3-56.3C19.8,1001.6,19.6,992.8,19.6,983.6Zm501.6,50.7v-31.6H62.6c-.9,20.2,6.1,37.2,20,51.1,18.4,18.5,41.1,26.6,67,26.6H1203.9a148.6,148.6,0,0,0,18.9-1c24.3-3.1,44.6-13.5,59.6-33.1,9.8-12.8,14.5-27.3,13.4-43.6H844v31.6Z" transform="translate(-19.6 -18.6)"/><path d="M349.6,311.8H187.2a26.3,26.3,0,0,0-26.7,26.5q0,274.2-.2,548.2a28,28,0,0,0,28.4,28.2q487.5-.3,974.9,0c16.2,0,28.7-12.3,28.6-28.6-.4-74.8-.2-224.3-.2-224.3l36.7-45.3s.3,184.9.3,276.5c-.1,27-22.2,53-49,57.4a74.1,74.1,0,0,1-12.4,1q-491.2.1-982.4.2c-33.6.1-61.9-28-61.8-61.9q.4-278.6.2-557.1c0-26.1,20.5-50.9,47.8-56.7a63.2,63.2,0,0,1,12.3-1H336.2C340.6,286.9,344.9,299,349.6,311.8Z" transform="translate(-19.6 -18.6)"/><path d="M726,787.6c24.7,13.7,48.3,26.9,72.1,39.9,2.2,1.2,5.5,1.1,8.1.7A743.1,743.1,0,0,0,898,807.3a618.7,618.7,0,0,0,96.2-37.6c35.8-17.4,68.7-39.2,97.8-66.5a275.6,275.6,0,0,0,48.8-60.8c3.1-5.3,17.1-30.1,17.1-30.1l32,22.4s-19,33.3-29.1,47.7c-22.3,31.6-50.2,57.8-81.4,80.5s-63.8,40.6-98.6,55.5c-56.8,24.3-115.9,40.3-177,49.4-8.6,1.3-15.3-1.6-22.3-5-31-15.4-60.5-33.5-89.6-52.2Q626.5,768.3,565,720.4c-37.2-29.1-74.4-58.3-110.8-88.4s-84.6-69.8-117.1-104.9c49,17.3,104,34.2,156.2,42.4,36.7,5.7,73.7,8.1,110.9,6,84.5-4.6,161.8-30.1,229.7-81.5,20.2-15.3,54.3-52.5,54.3-52.5l28,20.1s-23.5,32.3-38.3,45.8C840.1,541.7,796,565,748.8,583.8a427.8,427.8,0,0,1-80.3,23.1c-39.8,7.3-80,9.3-120.4,7-19.8-1.2-39.6-4-59.5-6.1h-1.9c12,13.5,26.5,21.5,44.4,25.1a359,359,0,0,0,98.1,5.7c6.3-.5,12.5-1.4,18.7-2.1l.6,1.6a37,37,0,0,1-4.3,2.5l-54.7,19L562,669.2c7.3,5.7,13.9,11.2,20.9,16.4,17.7,13.3,35.4,26.6,53.5,39.4,3.8,2.7,9.1,4.7,13.7,4.6,57.8-2.1,115.2-8.2,170.7-25.2,15.5-4.8,30.2-12.4,45.3-18.6l6.2-2.9a14.7,14.7,0,0,0,1,1.3,67.5,67.5,0,0,1-6.4,5.6l-116,80.9C743.1,776.1,735.3,781.3,726,787.6Z" transform="translate(-19.6 -18.6)"/><path d="M1244.8,515.7a116.7,116.7,0,0,1-18.9,65.6c-6,9.4-12.2,18.7-17.8,28.3-2.5,4.2-4.5,4-8.2,1.7q-51.7-33.3-103.7-66.2L902.4,421.7c-5.4-3.5-5.5-3.7-1.9-9.3,6.9-10.7,13.5-21.7,20.7-32.2,19.3-27.9,46-44.4,79.3-50.3,23-4.1,45.3-1.3,67,7.3a95.6,95.6,0,0,1,15.9,8.2c36.2,22.9,72.5,45.7,108.4,69.1,28.1,18.5,44.7,45,51.1,77.9a118.3,118.3,0,0,1,1.9,13.3C1245.1,509,1244.8,512.4,1244.8,515.7Z" transform="translate(-19.6 -18.6)"/><path d="M423.8,18.6a47.6,47.6,0,0,1,2.9,4.7l36,80.1c7,15.6,13.9,31.1,21.1,46.5a9.4,9.4,0,0,0,4.6,4.6c41.9,19,83.8,37.7,125.8,56.6l1.3.7,2.8,2.3c-1,1-1.7,2.3-2.9,2.8-17.5,8.1-35.1,16-52.8,23.9l-74.2,33.4a11,11,0,0,0-4.7,4.6L427.3,404.2c-.7,1.6-2.1,3-3.2,4.5-1.3-1.5-2.9-2.9-3.7-4.7Q392.2,341.3,364,278.7a10.2,10.2,0,0,0-4.7-4.5c-41.8-19-83.8-37.7-125.7-56.6a23.3,23.3,0,0,1-4.1-3.1c1.4-1.1,2.6-2.7,4.2-3.4l125.8-56.6a10.2,10.2,0,0,0,4.6-4.6q28.3-62.9,56.5-125.8C421.3,22.6,422.3,21.2,423.8,18.6Z" transform="translate(-19.6 -18.6)"/><path d="M1380.1,65c-1.5,5.3-2.3,11-4.7,16-10.7,22.3-21.8,44.3-32.7,66.4-11.9,24-23.6,48-35.5,72-21,42.3-41.9,84.5-63.2,126.7-7.1,14.3-14.8,28.3-22.6,42.2-3.2,5.6-7.7,10.5-11.1,16s-5.3,3.6-8.9,1.2c-17-11-34.2-21.8-51.3-32.7-21.2-13.6-42.5-27.2-63.9-40.6-3.8-2.4-4.9-4.4-2.6-8.7,10.2-19.2,23.1-36.6,36.8-53.4s28.3-35.3,42.4-52.9,28.5-35.1,42.6-52.8c11.4-14.3,22.7-28.7,34.1-42.9S1262.6,93.2,1274,79c8.8-11,17.3-22.3,26.2-33.2,6.6-8.2,12.8-17.1,23.8-20.1,6.5-1.8,12.4-2.1,18.4,2.2a229.3,229.3,0,0,0,25.3,16C1376.3,48.6,1379.6,55.4,1380.1,65Z" transform="translate(-19.6 -18.6)"/><path d="M1090.1,274.8l-38.5,37H497.8c5.1-8.9,0-.4,21.6-37h570.7Z" transform="translate(-19.6 -18.6)"/><path d="M381.6,657.8a51.8,51.8,0,0,1,2.7,4.5c10.4,23,20.8,46.1,31,69.2a12.9,12.9,0,0,0,7.2,7.3c23,10.1,45.9,20.5,68.7,30.8,1.3.6,2.3,1.9,3.5,2.8-1.2,1.1-2.3,2.5-3.7,3.2-23,10.4-46.1,20.6-69,31.2a14,14,0,0,0-6.3,6.2c-10.5,23-20.8,46.1-31.2,69.1-.7,1.4-2.1,2.5-3.1,3.7a19,19,0,0,1-3.1-3.9c-10.4-23-20.7-46.1-31.2-69a13,13,0,0,0-5.9-5.9c-23-10.6-46.1-20.8-69.1-31.3-1.5-.6-2.6-2-3.9-3,1.4-1.1,2.6-2.6,4.1-3.3,22.9-10.4,45.8-20.6,68.6-31.1a13.5,13.5,0,0,0,6.3-6.2c10.6-23.1,20.9-46.4,31.3-69.5C379.1,661.2,380.1,660.1,381.6,657.8Z" transform="translate(-19.6 -18.6)"/><path d="M301.8,508.3c-2.3,1.3-3.5,2.1-4.7,2.6-13.2,6-26.5,11.8-39.6,18a13.5,13.5,0,0,0-5.9,5.9c-6.1,13-11.8,26.1-17.8,39.2-.6,1.3-1.9,2.3-2.9,3.5a25.7,25.7,0,0,1-2.8-3.7c-5.9-12.8-11.5-25.8-17.7-38.6a15.3,15.3,0,0,0-6.6-6.5c-12.7-6.1-25.7-11.7-38.6-17.5a24.1,24.1,0,0,1-3.6-2.9c1.2-1,2.1-2.3,3.5-2.9,13.1-6,26.3-11.7,39.4-17.9a13,13,0,0,0,5.8-6c6.2-13,11.9-26.3,17.9-39.4.6-1.3,2-2.2,3-3.3a19.2,19.2,0,0,1,2.6,3.2c5.9,13.2,11.7,26.4,17.9,39.4a14.3,14.3,0,0,0,6.2,6.2c13.1,6.2,26.3,12,39.5,18C298.6,506.2,299.6,507,301.8,508.3Z" transform="translate(-19.6 -18.6)"/></g></svg>